<?xml version="1.0"?><svg width="1600" height="1200" xmlns="http://www.w3.org/2000/svg">
 <title>new high def mountain</title>
 <defs>
  <linearGradient y2="1" x2="1" id="svg_1">
   <stop offset="0" stop-color="#00bf00"/>
   <stop offset="1" stop-opacity="0.996094" stop-color="#000000"/>
  </linearGradient>
 </defs>
 <metadata id="metadata2377">image/svg+xml</metadata>
 <g>
  <title>Layer 1</title>
  <g id="svg_28">
   <path id="svg_29" fill="#bfbfbf" fill-rule="nonzero" stroke-width="1px" d="m1919.534302,88.800087c-4.263672,0.453239 -8.684082,2.487755 -13.671997,6.740654c-9.42041,10.076202 -17.504883,20.759796 -23.135986,33.431335c-10.207275,20.801544 -19.715332,41.93338 -29.797241,62.793182c-13.079224,28.066467 -26.663696,56.110474 -43.78186,82.088593c-13.81543,19.795685 -28.380127,39.132263 -46.784302,55.169464c-7.079102,6.792938 -16.816406,13.782959 -20.697388,22.071747c-2.883911,6.156708 8.110962,16.256256 14.304565,13.20047c8.690308,-4.292969 15.357666,-13.830994 21.981689,-21.175507c15.401123,-20.078217 27.006592,-42.566925 38.980225,-64.669403c15.045776,-27.378754 30.265747,-54.791901 45.792236,-81.913696c10.831055,-20.224396 23.323364,-39.376465 36.807617,-57.986206c5.44397,-9.140503 13.360229,-15.40451 21.68811,-21.530029c6.392822,7.776756 9.376953,18.029755 13.085205,27.27066c5.225342,13.23053 9.495239,26.753967 13.360107,40.408173c3.670654,13.595612 12.110962,19.151581 24.634033,23.982544c8.041138,1.619019 15.650879,-0.664063 23.404785,-2.478668c0.830444,-0.729553 0.8927,-0.737274 1.210938,-1.03186c-0.449341,0.458954 -0.505371,0.741943 1.773071,-0.704376c19.771362,10.610016 36.028198,25.692566 51.453979,41.536896c18.82251,20.494171 33.119141,44.088959 45.604492,68.618866c5.674805,9.54541 9.189453,19.734253 11.555664,30.143646c-2.098145,0.400024 -4.250977,0.783417 -6.349365,1.188843c-16.212646,5.090637 -17.286377,16.821625 -13.759277,30.888947c2.022949,6.523682 4.42041,12.900146 7.154541,19.121338c-3.651855,-1.32843 -7.248047,-2.675232 -10.899902,-4.008911c-9.626465,-2.997864 -19.483887,-3.325073 -29.460205,-3.204346c-10.906494,-0.108582 -18.909912,4.222778 -27.294189,10.377502c-3.458496,4.126099 -7.404053,7.740417 -11.299805,11.394226c-4.151123,2.474915 -9.164551,1.635742 -13.81543,1.851013c-13.965698,-1.663452 -27.911743,-2.358765 -41.914551,-2.14386c-16.912476,5.698792 -20.920654,20.213501 -27.468994,34.923035c-5.831055,14.68335 -15.576416,25.656616 -27.519165,35.702271c-8.58374,6.271545 -18.104248,6.045776 -27.974365,6.577942c-7.990601,-2.00116 -10.631592,-8.165588 -14.951294,-14.29364c-4.626221,-8.614441 -7.691162,-17.882324 -11.206177,-26.954224c-4.001709,-12.836914 -12.217407,-22.142578 -21.618896,-31.401611c-13.248047,-9.904297 -27.612915,-9.98938 -43.400757,-9.60199c-10.694458,1.151733 -21.295166,2.757019 -31.995117,3.776306c0.143677,-1.976074 -5.301636,-6.788635 -6.93689,-8.817749c-7.180786,-7.171814 -15.277466,-8.042175 -24.916382,-8.720703c-0.144287,-0.002502 -0.250366,0.042969 -0.392212,0.041992c-0.047241,-0.000366 -0.084229,0.013916 -0.130981,0.013062c-3.778687,-0.599426 -7.000732,-0.327332 -8.601196,1.170044c-5.364502,1.659668 -8.557495,5.206116 -13.057983,11.064758c-0.31897,0.414429 -0.188354,1.008362 0.156128,1.402832c2.093872,2.400452 4.031128,4.501709 5.982788,6.207886c-1.851929,3.194031 -3.790161,6.302002 -5.572632,9.368042c-12.589478,19.990417 -28.209106,37.899902 -44.255249,55.288757c-21.570435,23.487732 -44.569336,45.607239 -67.020752,68.285645c-22.547852,23.269287 -46.328003,45.460571 -69.706299,67.924072c-23.179199,21.254578 -46.153076,42.70343 -69.50708,63.773376c-22.421387,21.568115 -45.690186,42.223633 -68.938599,62.93512c-24.769287,23.186035 -50.915771,44.760071 -78.080566,65.197205c-21.558838,14.378662 -43.575928,28.180786 -66.078735,41.081055c-31.386475,32.301941 7.467773,46.568481 38.915161,38.2146c37.812744,-12.872498 76.161011,-23.057312 115.651611,-29.546875c19.863525,-2.889099 39.905884,-5.263245 59.871338,-5.308044c-8.172485,15.162659 -17.168945,29.809875 -24.446655,45.448792c-12.810303,27.844727 -1.417603,50.678467 29.734497,55.58313c26.508423,-4.081665 52.067627,-12.430054 78.523193,-17.2229c21.060181,-2.794312 42.25708,-3.785278 63.41626,-5.560303c23.340698,-2.564331 46.63623,-5.201416 70.126709,-5.878906c11.197266,-1.338379 21.842896,-0.408936 31.862671,2.177856c-0.464233,0.96875 -0.783569,1.724731 -1.387573,2.984619c-11.005859,16.926147 -22.651978,32.503418 -21.997803,53.192505c8.657837,27.206543 33.254028,20.895996 54.549805,13.454712c17.010986,-6.657593 34.691772,-9.843262 52.784058,-10.756226c5.069336,2.463745 6.423706,4.865723 9.994995,10.17395c10.406738,14.093018 24.746704,23.5896 39.848145,32.312988c13.515991,7.642822 27.868286,11.540039 42.751587,13.281372c-2.609497,1.019165 -5.131958,2.060547 -7.716187,3.140991c-12.205078,7.16687 -21.213379,15.594116 -34.479492,20.694824c-0.493286,0.190063 0.05603,1.550781 0.549194,1.360474c13.110229,-5.039063 25.133911,-4.848755 39.099121,-6.467041c29.5979,-6.584473 59.082886,-14.177002 89.405151,-16.954224c25.121094,-2.592529 51.247437,-0.845581 75.276489,-9.52417c19.084473,-9.625244 24.466064,-23.567383 16.905518,-43.097168c-4.007813,-11.747314 -7.996582,-21.321899 3.140869,-28.858276c11.82373,-8.331909 25.352051,-13.813354 39.95459,-16.624146c40.016357,-10.610474 80.308594,-20.106812 121.280273,-26.529175c49.768799,-7.385254 100.136475,-12.542114 150.07959,-3.11853c7.23584,1.063843 18.341797,2.681763 28.474121,4.98877c3.495605,7.228394 8.751953,11.802856 14.726563,17.027222c8.796143,5.95752 18.448242,5.744629 28.580322,6.007935c29.010986,-0.962891 36.689453,-42.59314 13.983643,-58.663086c-2.895996,-0.615845 -5.811768,-1.057861 -8.758057,-1.399658c0.137207,0.117554 0.306152,0.213013 0.436768,0.341797c-0.412109,-0.168457 -0.830566,-0.358398 -1.248779,-0.515381c-6.517578,-0.700195 -13.091309,-0.761475 -19.765137,-0.487061c2.22876,-1.690918 5.243896,-2.681824 8.952393,-2.754761c1.373535,0.32489 2.759277,0.397583 4.164307,0.593445c-0.324463,-0.173584 -0.668457,-0.347168 -0.986328,-0.54303c-9.389648,-5.744995 -18.722656,-11.489624 -26.501465,-19.395691c-14.864258,-14.893982 -28.541992,-30.554871 -42.333008,-46.372498c-20.458008,-26.025269 -41.128174,-52.011292 -57.297363,-80.936707c-23.104736,-37.240479 -45.45459,-74.844666 -67.323486,-112.789795c-21.281982,-38.466675 -41.608643,-77.493164 -63.783447,-115.48761c-16.263184,-28.248413 -33.530762,-55.910217 -49.71875,-84.18988c-6.991943,-12.876892 -12.741455,-26.438721 -14.608154,-40.921692c1.997559,-0.513184 3.926758,-1.031677 5.899414,-1.657654c13.241455,-6.972412 20.825928,-15.903564 14.028076,-30.916809c-9.514648,-12.412567 -20.832764,-23.251648 -30.427979,-35.631958c-17.261963,-22.074585 -33.199951,-45.079315 -50.592773,-67.057587c-14.227295,-17.866089 -29.279297,-35.116577 -41.633789,-54.323914c-8.540771,-8.301544 -14.764648,-13.938232 -27.687378,-11.009521c-2.734619,0.608185 -5.269043,1.72348 -8.134766,1.766266c-2.234741,-1.048462 -5.799561,-0.910492 -6.704834,-3.163055c-7.235107,-11.615173 -13.43457,-23.65033 -17.44873,-36.747925c-3.939087,-13.540527 -6.604736,-27.719406 -13.216431,-40.294945c-7.860229,-5.496101 -14.602051,-9.1698 -21.706421,-8.414742l0,0l0,-0.000023z"/>
  </g>
  <g id="svg_31">
   <path id="svg_32" fill="#bfbfbf" fill-rule="nonzero" stroke-width="1px" d="m585.05127,238.320496c-3.553223,0.351776 -7.236816,1.931183 -11.393494,5.232574c-7.850586,7.82193 -14.587891,16.115326 -19.28064,25.951965c-8.506287,16.147644 -16.429688,32.551849 -24.831726,48.744781c-10.899414,21.787415 -22.220215,43.557343 -36.485718,63.723419c-11.513123,15.366821 -23.650574,30.377441 -38.987793,42.826813c-5.899597,5.273132 -14.014099,10.69928 -17.248474,17.133545c-2.403198,4.779419 6.759521,12.619568 11.920959,10.247314c7.241943,-3.33252 12.798279,-10.736633 18.318298,-16.437988c12.8349,-15.586304 22.506226,-33.043732 32.484619,-50.201324c12.538269,-21.25351 25.222046,-42.533569 38.16095,-63.587616c9.026245,-15.699738 19.436584,-30.566925 30.67395,-45.013153c4.536682,-7.095612 11.133667,-11.958221 18.073792,-16.713409c5.327454,6.036987 7.81427,13.996124 10.904663,21.169495c4.354309,10.270569 7.912964,20.768524 11.133484,31.368011c3.05896,10.553864 10.092773,14.866882 20.528992,18.617004c6.700928,1.256714 13.042969,-0.515411 19.504395,-1.924133c0.692261,-0.566254 0.743958,-0.572327 1.009216,-0.801056c-0.374268,0.356323 -0.421143,0.575989 1.477722,-0.546722c16.476563,8.236176 30.02417,19.944397 42.879333,32.244141c15.685791,15.908966 27.599792,34.225189 38.004761,53.267029c4.729248,7.409882 7.658203,15.319305 9.6297,23.399994c-1.747864,0.310364 -3.542542,0.607971 -5.290771,0.922729c-13.51123,3.951782 -14.406128,13.058228 -11.466675,23.978394c1.685791,5.064209 3.683716,10.014038 5.962341,14.843445c-3.043396,-1.031311 -6.040283,-2.076782 -9.083557,-3.112183c-8.022339,-2.327087 -16.237183,-2.580933 -24.550964,-2.487366c-9.088928,-0.08429 -15.758423,3.278015 -22.745422,8.055786c-2.882263,3.203064 -6.170471,6.008667 -9.41687,8.845154c-3.459473,1.921082 -7.637268,1.269653 -11.513184,1.437012c-11.638306,-1.291382 -23.260376,-1.831238 -34.929932,-1.664429c-14.09375,4.42395 -17.433838,15.691162 -22.891113,27.109863c-4.859436,11.398376 -12.980469,19.916687 -22.933044,27.714844c-7.15332,4.86853 -15.087402,4.693298 -23.312561,5.106323c-6.659058,-1.553467 -8.859924,-6.338623 -12.460022,-11.095825c-3.855103,-6.687073 -6.409363,-13.881531 -9.338623,-20.923889c-3.334656,-9.964905 -10.181335,-17.188782 -18.016174,-24.376282c-11.040222,-7.688477 -23.011108,-7.754639 -36.168213,-7.453796c-8.912048,0.894104 -17.746216,2.140259 -26.663208,2.931396c0.11969,-1.533997 -4.418091,-5.269775 -5.780701,-6.844971c-5.984192,-5.567383 -12.731628,-6.242859 -20.764282,-6.769775c-0.120178,-0.001831 -0.208618,0.033508 -0.326782,0.032654c-0.039551,-0.000305 -0.070313,0.010803 -0.109192,0.010315c-3.149109,-0.465454 -5.834167,-0.254211 -7.16803,0.908081c-4.470459,1.288391 -7.131226,4.041504 -10.881897,8.589355c-0.265869,0.321838 -0.157043,0.782715 0.130188,1.08905c1.744995,1.863403 3.359375,3.494629 4.985779,4.819031c-1.543274,2.479248 -3.158508,4.892029 -4.644043,7.272156c-10.491455,15.517944 -23.508118,29.420837 -36.880249,42.919373c-17.975891,18.23291 -37.142029,35.403809 -55.851898,53.008484c-18.790771,18.063354 -38.607727,35.289978 -58.090179,52.727905c-19.316711,16.499451 -38.462006,33.149536 -57.924194,49.505615c-18.684998,16.742859 -38.075928,32.777222 -57.450195,48.855042c-20.641602,17.998901 -42.430908,34.746155 -65.068848,50.611023c-17.966034,11.161865 -36.314243,21.876099 -55.067022,31.89032c-26.15614,25.075134 6.22336,36.149963 32.430201,29.665039c31.511311,-9.992615 63.469067,-17.898926 96.378796,-22.936584c16.553452,-2.242737 33.255768,-4.085754 49.893982,-4.120422c-6.81073,11.770325 -14.307983,23.140747 -20.372604,35.280762c-10.675598,21.615234 -1.181396,39.340393 24.779251,43.147766c22.090942,-3.168396 43.3909,-9.649109 65.437714,-13.369751c17.550751,-2.168884 35.215027,-2.938293 52.848175,-4.316223c19.451233,-1.990601 38.864624,-4.037781 58.440552,-4.56366c9.331238,-1.039063 18.202698,-0.317444 26.552917,1.690674c-0.387024,0.751892 -0.653076,1.338867 -1.156555,2.316833c-9.171631,13.139526 -18.876953,25.231506 -18.331787,41.292053c7.215027,21.119751 27.71228,16.220947 45.459351,10.44458c14.176086,-5.168091 28.910583,-7.641113 43.987732,-8.349854c4.224487,1.912598 5.353271,3.777222 8.329285,7.897827c8.672729,10.940063 20.622803,18.312012 33.207703,25.08374c11.263672,5.932983 23.224304,8.958374 35.627014,10.310181c-2.174561,0.791016 -4.276367,1.599487 -6.430115,2.438354c-10.171204,5.563354 -17.678284,12.105103 -28.733704,16.064697c-0.41095,0.147583 0.046814,1.203857 0.457764,1.056274c10.925415,-3.911743 20.945496,-3.76416 32.583435,-5.020386c24.665344,-5.111328 49.236938,-11.005249 74.505981,-13.161255c20.934814,-2.012451 42.707642,-0.65625 62.732178,-7.393311c15.904175,-7.471802 20.388794,-18.294678 14.088501,-33.4552c-3.339905,-9.11908 -6.664246,-16.551697 2.617065,-22.402039c9.853577,-6.467896 21.12738,-10.723022 33.296326,-12.904846c33.348145,-8.236694 66.925354,-15.608521 101.069702,-20.593994c41.474854,-5.733032 83.448975,-9.736145 125.069458,-2.420837c6.029785,0.825806 15.285034,2.081848 23.728882,3.87262c2.913452,5.611328 7.293945,9.162354 12.272705,13.217834c7.330444,4.624695 15.373535,4.459412 23.817505,4.663757c24.176147,-0.747498 30.575195,-33.064026 11.65332,-45.538696c-2.413574,-0.478027 -4.843384,-0.821228 -7.299072,-1.086548c0.114624,0.091248 0.255249,0.165344 0.364136,0.26532c-0.343262,-0.130615 -0.691895,-0.278259 -1.040405,-0.399963c-5.431519,-0.543518 -10.90979,-0.591125 -16.471558,-0.378235c1.857666,-1.312561 4.370483,-2.081848 7.460693,-2.138367c1.144531,0.252136 2.299561,0.308533 3.470337,0.460693c-0.27063,-0.134827 -0.557007,-0.269531 -0.822021,-0.421692c-7.824829,-4.459595 -15.602661,-8.919067 -22.084961,-15.056396c-12.387329,-11.561768 -23.785889,-23.718933 -35.278442,-35.997803c-17.04895,-20.20282 -34.274414,-40.375122 -47.748901,-62.829285c-19.254517,-28.908752 -37.879761,-58.099976 -56.104248,-87.555847c-17.735718,-29.86084 -34.675171,-60.156067 -53.154663,-89.65033c-13.552673,-21.928589 -27.943115,-43.401794 -41.433228,-65.354492c-5.82666,-9.996033 -10.618286,-20.523804 -12.173645,-31.766602c1.664429,-0.398438 3.272278,-0.800903 4.916199,-1.286865c11.034668,-5.412354 17.355774,-12.34552 11.690369,-23.999878c-7.928711,-9.63562 -17.360962,-18.049744 -25.357605,-27.660309c-14.38501,-17.135895 -27.667053,-34.993896 -42.161255,-52.055237c-11.856506,-13.868866 -24.400024,-27.26004 -34.695923,-42.170319c-7.117126,-6.444183 -12.303955,-10.819824 -23.073364,-8.546234c-2.278687,0.471985 -4.390869,1.33783 -6.778748,1.371002c-1.862793,-0.813843 -4.833374,-0.706787 -5.587769,-2.455383c-6.029663,-9.016541 -11.195923,-18.359283 -14.541077,-28.526489c-3.282593,-10.511292 -5.504272,-21.517944 -11.013794,-31.279999c-6.550171,-4.266541 -12.168762,-7.118317 -18.089233,-6.532196l0,0z"/>
  </g>
  <path fill="url(#svg_1)" fill-rule="nonzero" stroke-width="1px" id="path3556" d="m2034.869751,1446.906616c3.146484,2.086304 6.670898,3.602295 10.113037,5.264282c0.432373,0.091797 0.832764,0.309814 1.263916,0.405029c-3.143799,-3.283813 -7.200684,-4.654663 -11.376953,-5.669312z"/>
  <path fill="url(#svg_1)" fill-rule="nonzero" stroke-width="1px" id="path3554" d="m1346.77002,167.280045c7.79248,1.444916 3.327637,0.816925 -0.632202,0.404984c0.219116,-0.124817 0.412964,-0.280167 0.632202,-0.404984z"/>
  <path fill="url(#svg_1)" fill-rule="nonzero" stroke-width="1px" id="path3552" d="m1600.22522,563.518921c0.251099,2.783203 0.663208,5.514709 0.842529,8.301392c-5.550049,0.10907 -3.661865,-4.099731 -0.842529,-8.301392z"/>
  <path fill="url(#svg_1)" fill-rule="nonzero" stroke-width="1px" id="path3548" d="m167.982788,1229.856201c0.400513,3.605713 -1.17746,7.059692 -7.373962,9.313477c2.397034,-3.122925 4.865326,-6.283081 7.373962,-9.313477z"/>
  <path fill="url(#svg_1)" fill-rule="nonzero" stroke-width="1px" id="path3537" d="m490.121429,1241.599365c3.355835,0.575439 6.772705,1.141846 10.112915,1.822266c-3.516235,1.32019 -6.911743,0.261719 -10.112915,-1.822266z"/>
  <g id="svg_27">
   <path id="svg_25" fill="#7f7f7f" fill-rule="nonzero" stroke-width="1px" d="m1254.33252,23.43626c-5.293579,0.56793 -10.781128,3.117319 -16.973755,8.446239c-11.695801,12.625919 -21.733032,26.01276 -28.724121,41.890717c-12.672607,26.064911 -24.477051,52.543983 -36.994263,78.68206c-16.237793,35.168427 -33.10376,70.308578 -54.356201,102.860016c-17.151978,24.804428 -35.234497,49.034103 -58.08374,69.129349c-8.789063,8.511749 -20.878052,17.270477 -25.696655,27.656372c-3.5802,7.714691 10.070435,20.369995 17.759766,16.540771c10.78894,-5.37915 19.067017,-17.330688 27.290405,-26.533508c19.12146,-25.158905 33.529663,-53.337982 48.39563,-81.033142c18.679199,-34.30661 37.575317,-68.656082 56.851685,-102.640717c13.447388,-25.341949 28.956665,-49.34008 45.697876,-72.6586c6.758667,-11.453461 16.586792,-19.30246 26.92627,-26.978168c7.93689,9.744694 11.641479,22.591991 16.245483,34.170994c6.487061,16.5784 11.788574,33.523819 16.586548,50.633102c4.557373,17.035645 15.036255,23.997559 30.584106,30.050888c9.98291,2.028534 19.431396,-0.83197 29.057617,-3.105865c1.031128,-0.914001 1.108154,-0.923874 1.503418,-1.29306c-0.557739,0.575211 -0.627319,0.929718 2.201294,-0.882523c24.546753,13.294586 44.729858,32.193527 63.881104,52.047348c23.368774,25.679626 41.118042,55.24501 56.619263,85.981644c7.045776,11.960724 11.409424,24.727905 14.346436,37.771362c-2.604126,0.501068 -5.277588,0.981384 -7.882202,1.489441c-20.12915,6.378876 -21.462402,21.078186 -17.083252,38.705017c2.511841,8.174438 5.488037,16.164246 8.882935,23.959778c-4.533936,-1.664734 -8.999023,-3.352264 -13.532715,-5.023682c-11.951538,-3.756165 -24.189941,-4.165955 -36.575806,-4.014923c-13.540771,-0.136078 -23.47644,5.291321 -33.885864,13.003296c-4.293945,5.170319 -9.192627,9.699066 -14.028931,14.277588c-5.154053,3.100952 -11.378174,2.049408 -17.152466,2.31955c-17.338623,-2.084564 -34.653076,-2.955872 -52.038208,-2.686768c-20.996826,7.141144 -25.972778,25.328094 -34.103027,43.759827c-7.239502,18.398895 -19.338257,32.148743 -34.165527,44.736237c-10.656982,7.858643 -22.477051,7.575745 -34.730835,8.242432c-9.920532,-2.507507 -13.199341,-10.231567 -18.562866,-17.91037c-5.743164,-10.794128 -9.548706,-22.407043 -13.912598,-33.774628c-4.968018,-16.085052 -15.167969,-27.745575 -26.840576,-39.347229c-16.447388,-12.410461 -34.281494,-12.517212 -53.882813,-12.031769c-13.277344,1.44339 -26.438354,3.454742 -39.722656,4.731781c0.178223,-2.476074 -6.582153,-8.506287 -8.612183,-11.048828c-8.915161,-8.986603 -18.967468,-10.077057 -30.934387,-10.92749c-0.179077,-0.003052 -0.31073,0.054047 -0.486938,0.052673c-0.058777,-0.000519 -0.104736,0.017517 -0.162598,0.016632c-4.691589,-0.751312 -8.691528,-0.410309 -10.678894,1.465851c-6.660095,2.079681 -10.623962,6.523651 -16.211548,13.864502c-0.396118,0.519623 -0.23407,1.263458 0.193665,1.758087c2.599792,3.007721 5.004944,5.640778 7.427917,7.778564c-2.299133,4.001831 -4.705627,7.896515 -6.918579,11.738464c-15.63031,25.048431 -35.022278,47.48996 -54.943909,69.2789c-26.780518,29.430725 -55.333923,57.1474 -83.207703,85.564209c-27.994446,29.15741 -57.517578,56.963928 -86.542358,85.111511c-28.778015,26.632813 -57.300293,53.50885 -86.294861,79.910034c-27.836853,27.025818 -56.725281,52.907837 -85.588867,78.860046c-30.751709,29.053162 -63.213196,56.085938 -96.939056,81.694397c-26.765625,18.017151 -54.100616,35.311584 -82.0383,51.476257c-38.967438,40.475403 9.271454,58.351929 48.314178,47.884338c46.945068,-16.129883 94.555695,-28.891846 143.58432,-37.023499c24.661194,-3.6203 49.543945,-6.595032 74.331543,-6.651001c-10.146667,18.999329 -21.315796,37.353027 -30.35083,56.948975c-15.90448,34.890259 -1.760071,63.501709 36.916016,69.647461c32.910706,-5.11438 64.643188,-15.575317 97.488403,-21.581055c26.146973,-3.500732 52.463196,-4.74292 78.732727,-6.967041c28.978271,-3.213135 57.90033,-6.517578 87.064209,-7.366455c13.901489,-1.677124 27.118347,-0.512451 39.558472,2.729126c-0.57666,1.213623 -0.972961,2.161011 -1.723206,3.739624c-13.663635,21.209351 -28.12262,40.727783 -27.310303,66.6521c10.748779,34.090698 41.285767,26.183472 67.724854,16.859253c21.119202,-8.342285 43.07074,-12.334106 65.532532,-13.477905c6.293823,3.087036 7.97522,6.096924 12.409058,12.748413c12.92041,17.658936 30.723511,29.558472 49.472412,40.489258c16.780396,9.57666 34.599609,14.459961 53.076904,16.64209c-3.239624,1.276733 -6.37085,2.581787 -9.57959,3.936035c-15.152954,8.980225 -26.336914,19.539673 -42.807007,25.930908c-0.612305,0.238403 0.06958,1.943237 0.681763,1.705078c16.276733,-6.314209 31.204346,-6.07605 48.542603,-8.103638c36.746216,-8.250732 73.352783,-17.764526 110.998535,-21.244507c31.188599,-3.248291 63.625244,-1.059204 93.457397,-11.934082c23.69397,-12.060669 30.375366,-29.530518 20.989014,-54.002319c-4.97583,-14.719482 -9.928223,-26.716919 3.89917,-36.1604c14.679688,-10.440186 31.47522,-17.308594 49.60437,-20.830322c49.681885,-13.29541 99.704712,-25.194824 150.572754,-33.242188c61.788818,-9.254028 124.321533,-15.715698 186.327637,-3.907837c8.98291,1.333252 22.771118,3.360596 35.35144,6.251343c4.3396,9.057495 10.865967,14.789429 18.283081,21.335693c10.921021,7.465088 22.903442,7.198242 35.483276,7.528076c36.0177,-1.206787 45.550537,-53.37085 17.360962,-73.506897c-3.595703,-0.771667 -7.21521,-1.325623 -10.874146,-1.753784c0.171021,0.147095 0.380981,0.266785 0.542603,0.428162c-0.511108,-0.210876 -1.03064,-0.449219 -1.550171,-0.645691c-8.091431,-0.877197 -16.253296,-0.954163 -24.53894,-0.610474c2.767334,-2.118774 6.510864,-3.360352 11.11499,-3.451721c1.704956,0.406982 3.425781,0.498047 5.170044,0.743774c-0.403076,-0.217651 -0.829834,-0.435181 -1.224487,-0.680603c-11.657959,-7.198608 -23.244873,-14.396912 -32.902344,-24.30365c-18.45459,-18.662598 -35.435913,-38.286194 -52.557373,-58.106384c-25.399536,-32.610535 -51.062012,-65.171936 -71.135986,-101.416565c-28.685303,-46.663513 -56.432983,-93.782898 -83.58374,-141.329407c-26.422485,-48.200256 -51.658447,-97.101807 -79.189331,-144.710327c-20.19043,-35.396393 -41.629517,-70.057617 -61.726807,-105.492676c-8.68042,-16.135193 -15.81897,-33.128815 -18.136108,-51.276581c2.479614,-0.643097 4.874878,-1.292633 7.323853,-2.077118c16.439697,-8.736359 25.856689,-19.927734 17.416382,-38.739746c-11.812256,-15.553436 -25.86438,-29.135162 -37.777588,-44.648163c-21.430664,-27.660217 -41.217896,-56.485947 -62.811523,-84.025665c-17.663696,-22.386658 -36.350708,-44.002167 -51.689453,-68.069824c-10.603027,-10.401947 -18.3302,-17.464966 -34.374512,-13.795013c-3.394653,0.761841 -6.541382,2.159515 -10.098755,2.213043c-2.775269,-1.313736 -7.200928,-1.140839 -8.324707,-3.963379c-8.983032,-14.554108 -16.679688,-29.634872 -21.66333,-46.04641c-4.890381,-16.966919 -8.200073,-34.733482 -16.408325,-50.490982c-9.758179,-6.8869 -18.128784,-11.49015 -26.949097,-10.544069l0,0l0,-0.00004z"/>
  </g>
 </g>
</svg>